<svg width="70" height="70" viewBox="0 0 70 70" fill="none" xmlns="http://www.w3.org/2000/svg">
<g clip-path="url(#clip0_1014_293)">
<path d="M35 35.5C35 32.9804 36.0009 30.5641 37.7825 28.7825C39.5641 27.0009 41.9804 26 44.5 26C47.0196 26 49.4359 27.0009 51.2175 28.7825C52.9991 30.5641 54 32.9804 54 35.5C54 38.0196 52.9991 40.4359 51.2175 42.2175C49.4359 43.9991 47.0196 45 44.5 45C41.9804 45 39.5641 43.9991 37.7825 42.2175C36.0009 40.4359 35 38.0196 35 35.5Z" fill="#1ABCFE"/>
<path d="M16 54.5C16 51.9804 17.0009 49.5641 18.7825 47.7825C20.5641 46.0009 22.9804 45 25.5 45H35V54.5C35 57.0196 33.9991 59.4359 32.2175 61.2175C30.4359 62.9991 28.0196 64 25.5 64C22.9804 64 20.5641 62.9991 18.7825 61.2175C17.0009 59.4359 16 57.0196 16 54.5V54.5Z" fill="#0ACF83"/>
<path d="M35 7V26H44.5C47.0196 26 49.4359 24.9991 51.2175 23.2175C52.9991 21.4359 54 19.0196 54 16.5C54 13.9804 52.9991 11.5641 51.2175 9.78249C49.4359 8.00089 47.0196 7 44.5 7L35 7Z" fill="#FF7262"/>
<path d="M16 16.5C16 19.0196 17.0009 21.4359 18.7825 23.2175C20.5641 24.9991 22.9804 26 25.5 26H35V7H25.5C22.9804 7 20.5641 8.00089 18.7825 9.78249C17.0009 11.5641 16 13.9804 16 16.5V16.5Z" fill="#F24E1E"/>
<path d="M16 35.5C16 38.0196 17.0009 40.4359 18.7825 42.2175C20.5641 43.9991 22.9804 45 25.5 45H35V26H25.5C22.9804 26 20.5641 27.0009 18.7825 28.7825C17.0009 30.5641 16 32.9804 16 35.5V35.5Z" fill="#A259FF"/>
</g>
<defs>
<clipPath id="clip0_1014_293">
<rect width="38" height="57" fill="white" transform="translate(16 7)"/>
</clipPath>
</defs>
</svg>
