<svg width="80" height="80" viewBox="0 0 80 80" fill="none" xmlns="http://www.w3.org/2000/svg">
<path d="M36.981 78.652C37.9075 79.1855 38.957 79.4625 40.0138 79.4625L40.0108 79.4475C41.0821 79.4475 42.1316 79.1725 43.0581 78.637L71.967 61.9385C73.8345 60.8525 75 58.8335 75 56.669V23.3012C75 21.1298 73.8345 19.1104 71.967 18.0319L43.0581 1.32628C41.2413 0.291224 38.8093 0.291224 36.9781 1.32628L8.0328 18.0246C6.1581 19.0959 5 21.1226 5 23.294V56.662C5 58.826 6.1581 60.8525 8.0328 61.9385L15.6184 66.3105C19.2953 68.12 20.6127 68.12 22.2847 68.12C27.7205 68.12 30.8474 64.8265 30.8474 59.094V26.1458C30.8474 25.6754 30.471 25.3134 30.015 25.3134H26.3525C25.882 25.3134 25.5128 25.6754 25.5128 26.1458V59.0795C25.5128 61.627 22.8855 64.1605 18.586 62.011L10.6675 57.4365C10.3924 57.2845 10.2187 56.9805 10.2187 56.662V23.294C10.2187 22.9755 10.3967 22.6643 10.6769 22.505L39.5759 5.82838C39.8437 5.66913 40.1983 5.66913 40.4662 5.82838L69.371 22.505C69.6445 22.6715 69.818 22.9683 69.818 23.3012V56.669C69.818 56.9875 69.6445 57.299 69.3765 57.451L40.4604 74.142C40.2121 74.2865 39.8321 74.2865 39.5643 74.142L32.148 69.741C31.9273 69.611 31.645 69.5675 31.4293 69.6905C29.3773 70.856 28.9872 71.008 27.0648 71.681C26.5892 71.8455 25.8856 72.1305 27.3274 72.937L36.981 78.652Z" fill="#57965C"/>
<path d="M33.64 45.791C33.64 50.6625 36.2928 56.47 48.945 56.47L48.9031 56.504C58.0665 56.504 63.3215 52.8925 63.3215 46.5952C63.3215 40.3487 59.1015 38.6839 50.213 37.5041C41.2379 36.317 40.3259 35.7018 40.3259 33.5955C40.3259 31.8583 41.1003 29.5421 47.7522 29.5421C53.6945 29.5421 55.8805 30.8233 56.7855 34.826C56.865 35.2024 57.205 35.4774 57.596 35.4774H61.3525C61.584 35.4774 61.8085 35.3761 61.968 35.2096C62.127 35.0359 62.214 34.8043 62.192 34.5654C61.613 27.6602 57.024 24.4465 47.7667 24.4465C39.5224 24.4465 34.6005 27.9208 34.6005 33.7547C34.6005 40.0881 39.4935 41.8325 47.412 42.6142C56.8795 43.5407 57.6175 44.9232 57.6175 46.7834C57.6175 50.015 55.0265 51.392 48.932 51.392C41.2813 51.392 39.602 49.4723 39.0375 45.6665C38.9723 45.259 38.6249 44.9586 38.2123 44.9586H34.4775C34.0135 44.9586 33.64 45.3278 33.64 45.791Z" fill="#57965C"/>
</svg>
