<svg width="58" height="70" viewBox="0 0 58 70" fill="none" xmlns="http://www.w3.org/2000/svg">
  <path fill-rule="evenodd" clip-rule="evenodd"
    d="M52.025 55.525L20.8475 64.82C20.6303 64.8859 20.3997 64.8943 20.1782 64.8444C19.9568 64.7945 19.7521 64.688 19.5841 64.5354C19.4161 64.3828 19.2905 64.1892 19.2197 63.9735C19.1489 63.7579 19.1352 63.5275 19.18 63.305L30.32 9.5275C30.3671 9.30783 30.4818 9.10844 30.6481 8.95735C30.8144 8.80625 31.0238 8.71105 31.247 8.68512C31.4702 8.65919 31.6958 8.70384 31.8923 8.81278C32.0888 8.92172 32.2462 9.08949 32.3425 9.29251L52.965 53.445C53.0574 53.6413 53.1062 53.8554 53.1079 54.0724C53.1096 54.2894 53.0642 54.5041 52.9748 54.7019C52.8855 54.8996 52.7543 55.0756 52.5903 55.2177C52.4263 55.3598 52.2334 55.4647 52.025 55.525ZM57.3725 53.33L33.5 2.2075C33.2065 1.57695 32.7468 1.03827 32.1703 0.649335C31.5937 0.260401 30.922 0.035918 30.2275 5.10644e-06C29.5329 -0.0477695 28.8385 0.0971065 28.221 0.418674C27.6034 0.740242 27.0866 1.22602 26.7275 1.82251L0.83997 44.12C0.445067 44.7603 0.239695 45.4993 0.24766 46.2515C0.255624 47.0037 0.476599 47.7383 0.88497 48.37L13.545 68.1425C14.022 68.8814 14.7256 69.4459 15.5503 69.7515C16.3751 70.0571 17.2766 70.0872 18.12 69.8375L54.87 58.88C55.425 58.7183 55.9384 58.4383 56.3748 58.0591C56.8112 57.6799 57.1603 57.2107 57.3979 56.6837C57.6355 56.1566 57.756 55.5844 57.7512 55.0063C57.7464 54.4282 57.6163 53.858 57.37 53.335L57.3725 53.33Z"
    fill="#4F6572" />
</svg>