<svg width="70" height="43" viewBox="0 0 70 43" fill="none" xmlns="http://www.w3.org/2000/svg">
<path fill-rule="evenodd" clip-rule="evenodd" d="M35 0C25.6667 0 19.8333 4.6993 17.5 14.0979C21 9.3986 25.0833 7.63635 29.75 8.8112C32.4126 9.48085 34.3156 11.4271 36.4221 13.5796C39.8534 17.0872 43.8252 21.1469 52.5 21.1469C61.8335 21.1469 67.6665 16.4475 70 7.04895C66.5 11.7483 62.4165 13.5105 57.75 12.3357C55.0875 11.666 53.1845 9.7197 51.078 7.5672C47.6465 4.05965 43.6748 0 35 0ZM17.5 21.1469C8.16665 21.1469 2.33335 25.8461 0 35.245C3.5 30.5455 7.58335 28.7832 12.25 29.958C14.9126 30.629 16.8155 32.574 18.9221 34.7265C22.3533 38.234 26.3252 42.2935 35 42.2935C44.3334 42.2935 50.1665 37.5945 52.5 28.1958C49 32.895 44.9167 34.6575 40.25 33.4825C37.5874 32.813 35.6844 30.8665 33.5779 28.7141C30.1467 25.2066 26.1748 21.1469 17.5 21.1469Z" fill="#14B4C6"/>
</svg>
