<svg width="80" height="80" viewBox="0 0 80 80" fill="none" xmlns="http://www.w3.org/2000/svg">
<path d="M70 20C70 14.4771 65.523 10 60 10H20C14.4771 10 10 14.4771 10 20V60C10 65.523 14.4771 70 20 70H60C65.523 70 70 65.523 70 60V20Z" fill="#3574F0"/>
<path d="M15.675 29.9999H39.3586V34.9999H30V60H25V34.9999H15.675V29.9999Z" fill="white"/>
<path d="M53.4165 60.451C51.2935 60.451 49.4125 60.0665 47.7738 59.297C46.135 58.513 44.8525 57.43 43.9262 56.048C43 54.6515 42.5298 53.0555 42.5155 51.26H47.5813C47.5813 52.2005 47.8308 53.041 48.3295 53.782C48.8283 54.523 49.5194 55.1 50.403 55.5135C51.3005 55.9125 52.3265 56.112 53.481 56.112C54.6065 56.112 55.597 55.9265 56.452 55.556C57.307 55.1855 57.9625 54.6655 58.4185 53.996C58.8885 53.312 59.124 52.528 59.124 51.6445C59.124 50.533 58.789 49.5784 58.119 48.7804C57.4495 47.9681 56.559 47.4694 55.4475 47.2841L50.3815 46.4291C48.928 46.1726 47.6669 45.6596 46.5981 44.8901C45.5294 44.1206 44.7029 43.1588 44.1186 42.0045C43.5486 40.836 43.2636 39.5606 43.2636 38.1784C43.2636 36.5254 43.6911 35.0434 44.5461 33.7324C45.4153 32.4071 46.6195 31.374 48.1585 30.633C49.6975 29.8778 51.436 29.5001 53.374 29.5001C55.3545 29.5001 57.1145 29.8635 58.6535 30.5903C60.207 31.317 61.418 32.3288 62.2875 33.6255C63.1565 34.9223 63.5985 36.4043 63.6125 38.0715H58.5465C58.5465 37.2593 58.333 36.5325 57.9055 35.8913C57.478 35.2358 56.8795 34.7299 56.11 34.3736C55.3405 34.0174 54.45 33.8393 53.438 33.8393C52.4265 33.8393 51.5355 34.0103 50.766 34.3523C49.9968 34.6943 49.3983 35.1788 48.9708 35.8058C48.5433 36.4328 48.3295 37.1595 48.3295 37.986C48.3295 38.955 48.643 39.7958 49.27 40.5083C49.897 41.2065 50.7165 41.6411 51.728 41.8121L56.7085 42.6244C58.176 42.8809 59.48 43.4295 60.62 44.2703C61.7745 45.111 62.665 46.1584 63.292 47.4124C63.919 48.6664 64.2325 49.9988 64.2325 51.4095C64.2325 53.1195 63.7765 54.6655 62.8645 56.048C61.9525 57.416 60.677 58.4915 59.0385 59.2755C57.3995 60.059 55.5255 60.451 53.4165 60.451Z" fill="white"/>
</svg>
